<svg width="41" height="41" viewBox="0 0 41 41" fill="none" xmlns="http://www.w3.org/2000/svg">
<path d="M35.2743 7.0883L31.1103 11.2532L33.2324 13.3757C33.9851 14.1285 33.9851 15.346 33.2324 16.0909L31.839 17.4845C32.784 19.5749 33.3125 21.8976 33.3125 24.3405C33.3125 33.5432 25.8572 41 16.6563 41C7.45522 41 0 33.5512 0 24.3485C0 15.1457 7.45522 7.689 16.6563 7.689C19.0986 7.689 21.4209 8.21762 23.5109 9.16273L24.9042 7.76909C25.657 7.01622 26.8741 7.01622 27.6189 7.76909L29.741 9.89157L33.9051 5.7267L35.2743 7.0883ZM40.039 4.80562H38.1172C37.5886 4.80562 37.1563 5.23814 37.1563 5.76674C37.1563 6.29537 37.5886 6.72788 38.1172 6.72788H40.039C40.5675 6.72788 41 6.29537 41 5.76674C41 5.23814 40.5675 4.80562 40.039 4.80562ZM35.2344 0C34.7058 0 34.2735 0.432507 34.2735 0.961125V2.88338C34.2735 3.41199 34.7058 3.8445 35.2344 3.8445C35.7628 3.8445 36.1953 3.41199 36.1953 2.88338V0.961125C36.1953 0.432507 35.7628 0 35.2344 0ZM37.949 4.40516L39.3103 3.04356C39.6867 2.66712 39.6867 2.05841 39.3103 1.68197C38.934 1.30552 38.3253 1.30552 37.949 1.68197L36.5876 3.04356C36.2113 3.42001 36.2113 4.02872 36.5876 4.40516C36.9721 4.7816 37.5806 4.7816 37.949 4.40516ZM32.5197 4.40516C32.896 4.7816 33.5047 4.7816 33.881 4.40516C34.2574 4.02872 34.2574 3.42001 33.881 3.04356L32.5197 1.68197C32.1433 1.30552 31.5348 1.30552 31.1583 1.68197C30.782 2.05841 30.782 2.66712 31.1583 3.04356L32.5197 4.40516ZM37.949 7.12834C37.5726 6.75191 36.9641 6.75191 36.5876 7.12834C36.2113 7.50478 36.2113 8.11349 36.5876 8.48994L37.949 9.85153C38.3253 10.228 38.934 10.228 39.3103 9.85153C39.6867 9.47509 39.6867 8.86638 39.3103 8.48994L37.949 7.12834ZM8.96874 21.7855C8.96874 18.9582 11.267 16.6595 14.0938 16.6595C14.7984 16.6595 15.375 16.0829 15.375 15.378C15.375 14.6732 14.7984 14.0965 14.0938 14.0965C9.85758 14.0965 6.40623 17.5486 6.40623 21.7855C6.40623 22.4904 6.98279 23.067 7.68755 23.067C8.39218 23.067 8.96874 22.4904 8.96874 21.7855Z" fill="white"/>
</svg>
