<svg width="53" height="48" viewBox="0 0 53 48" fill="none" xmlns="http://www.w3.org/2000/svg">
<g clip-path="url(#clip0_47_55)">
<path d="M38.1491 5.65539L34.8262 8.97833L36.5196 10.6718C37.1203 11.2724 37.1203 12.2438 36.5196 12.8381L35.4077 13.95C36.1618 15.6178 36.5835 17.471 36.5835 19.42C36.5835 26.7624 30.6342 32.7118 23.2918 32.7118C15.9493 32.7118 10 26.7688 10 19.4264C10 12.084 15.9493 6.13466 23.2918 6.13466C25.2408 6.13466 27.094 6.55642 28.7618 7.31047L29.8737 6.19856C30.4744 5.59788 31.4457 5.59788 32.04 6.19856L33.7335 7.89198L37.0564 4.56904L38.1491 5.65539ZM41.9513 3.83416H40.4177C39.9959 3.83416 39.6509 4.17924 39.6509 4.60099C39.6509 5.02275 39.9959 5.36783 40.4177 5.36783H41.9513C42.3731 5.36783 42.7182 5.02275 42.7182 4.60099C42.7182 4.17924 42.3731 3.83416 41.9513 3.83416ZM38.1172 0C37.6954 0 37.3504 0.345075 37.3504 0.766832V2.3005C37.3504 2.72225 37.6954 3.06733 38.1172 3.06733C38.5389 3.06733 38.884 2.72225 38.884 2.3005V0.766832C38.884 0.345075 38.5389 0 38.1172 0ZM40.2835 3.51465L41.3698 2.4283C41.6702 2.12796 41.6702 1.6423 41.3698 1.34196C41.0695 1.04161 40.5838 1.04161 40.2835 1.34196L39.1971 2.4283C38.8968 2.72865 38.8968 3.21431 39.1971 3.51465C39.5039 3.81499 39.9895 3.81499 40.2835 3.51465ZM35.9509 3.51465C36.2512 3.81499 36.7369 3.81499 37.0372 3.51465C37.3376 3.21431 37.3376 2.72865 37.0372 2.4283L35.9509 1.34196C35.6505 1.04161 35.1649 1.04161 34.8645 1.34196C34.5642 1.6423 34.5642 2.12796 34.8645 2.4283L35.9509 3.51465ZM40.2835 5.68734C39.9831 5.387 39.4975 5.387 39.1971 5.68734C38.8968 5.98768 38.8968 6.47334 39.1971 6.77369L40.2835 7.86003C40.5838 8.16037 41.0695 8.16037 41.3698 7.86003C41.6702 7.55969 41.6702 7.07403 41.3698 6.77369L40.2835 5.68734ZM17.1571 17.3815C17.1571 15.1258 18.9911 13.2918 21.2469 13.2918C21.8092 13.2918 22.2693 12.8317 22.2693 12.2693C22.2693 11.707 21.8092 11.2469 21.2469 11.2469C17.8664 11.2469 15.1122 14.0011 15.1122 17.3815C15.1122 17.9439 15.5723 18.404 16.1347 18.404C16.697 18.404 17.1571 17.9439 17.1571 17.3815Z" fill="black"/>
</g>
<path d="M16.4162 39.538C16.3415 39.762 16.2435 40.056 16.1222 40.42C16.0102 40.7747 15.8842 41.1667 15.7442 41.596C15.6042 42.0253 15.4595 42.4827 15.3102 42.968C15.1608 43.444 15.0068 43.9107 14.8482 44.368C14.6988 44.8253 14.5495 45.264 14.4002 45.684C14.2508 46.0947 14.1155 46.454 13.9942 46.762C13.9568 46.8367 13.8775 46.8973 13.7562 46.944C13.6442 46.9813 13.4622 47 13.2102 47C13.0515 47 12.8882 46.9907 12.7202 46.972C12.5522 46.9533 12.3935 46.916 12.2442 46.86C12.1042 46.804 11.9782 46.7293 11.8662 46.636C11.7635 46.5427 11.6842 46.426 11.6282 46.286C11.4882 45.81 11.3528 45.2827 11.2222 44.704C11.1008 44.116 10.9795 43.5187 10.8582 42.912C10.7368 42.3053 10.6155 41.7127 10.4942 41.134C10.3822 40.546 10.2655 40.014 10.1442 39.538C10.1442 39.6687 10.1395 39.8927 10.1302 40.21C10.1208 40.5273 10.1115 40.896 10.1022 41.316C10.0928 41.736 10.0788 42.1887 10.0602 42.674C10.0508 43.1593 10.0415 43.6353 10.0322 44.102C10.0228 44.5593 10.0135 44.9887 10.0042 45.39C9.99484 45.782 9.99017 46.104 9.99017 46.356C9.99017 46.636 9.97151 46.8133 9.93417 46.888C9.90617 46.9627 9.85017 47 9.76617 47H8.99617C8.46417 47 8.08617 46.8973 7.86217 46.692C7.64751 46.4773 7.54017 46.1647 7.54017 45.754C7.54017 45.642 7.54484 45.4553 7.55417 45.194C7.57284 44.9233 7.59617 44.606 7.62417 44.242C7.65217 43.878 7.68017 43.4813 7.70817 43.052C7.74551 42.6133 7.78284 42.17 7.82017 41.722C7.86684 41.1153 7.90417 40.6113 7.93217 40.21C7.96951 39.7993 7.99751 39.4587 8.01617 39.188C8.03484 38.9173 8.04884 38.698 8.05817 38.53C8.07684 38.362 8.08617 38.2127 8.08617 38.082C8.09551 37.9513 8.10017 37.83 8.10017 37.718C8.10951 37.5967 8.11417 37.4473 8.11417 37.27C8.11417 37.1953 8.14217 37.144 8.19817 37.116C8.25417 37.0787 8.30551 37.06 8.35217 37.06H10.3122C10.6762 37.06 10.9748 37.1207 11.2082 37.242C11.4415 37.354 11.6328 37.5313 11.7822 37.774C11.9315 38.0167 12.0528 38.334 12.1462 38.726C12.2395 39.1087 12.3235 39.566 12.3982 40.098C12.4822 40.63 12.5708 41.246 12.6642 41.946C12.7668 42.6367 12.8975 43.416 13.0562 44.284C13.2055 43.7053 13.3315 43.2247 13.4342 42.842C13.5368 42.4593 13.6208 42.142 13.6862 41.89C13.7608 41.6287 13.8215 41.414 13.8682 41.246C13.9148 41.078 13.9568 40.924 13.9942 40.784C14.0315 40.6347 14.0735 40.476 14.1202 40.308C14.1668 40.14 14.2228 39.93 14.2882 39.678C14.3535 39.426 14.4328 39.1133 14.5262 38.74C14.6288 38.3573 14.7548 37.8767 14.9042 37.298C14.9228 37.242 14.9555 37.1907 15.0022 37.144C15.0488 37.088 15.1328 37.06 15.2542 37.06H17.4382C17.7368 37.06 17.9748 37.0927 18.1522 37.158C18.3388 37.214 18.4835 37.298 18.5862 37.41C18.6888 37.522 18.7588 37.662 18.7962 37.83C18.8335 37.9887 18.8522 38.1753 18.8522 38.39C18.8522 38.6047 18.8382 38.9547 18.8102 39.44C18.7915 39.916 18.7588 40.4573 18.7122 41.064C18.6748 41.6613 18.6328 42.282 18.5862 42.926C18.5488 43.57 18.5068 44.1673 18.4602 44.718C18.4228 45.2687 18.3902 45.7353 18.3622 46.118C18.3342 46.5007 18.3155 46.7247 18.3062 46.79C18.2968 46.8647 18.2782 46.9207 18.2502 46.958C18.2222 46.986 18.1662 47 18.0822 47H17.3122C16.7802 47 16.4022 46.8973 16.1782 46.692C15.9635 46.4773 15.8562 46.202 15.8562 45.866C15.8562 45.7633 15.8655 45.5767 15.8842 45.306C15.9122 45.0353 15.9448 44.718 15.9822 44.354C16.0195 43.99 16.0615 43.5933 16.1082 43.164C16.1548 42.7253 16.1968 42.2913 16.2342 41.862C16.2715 41.4327 16.3042 41.0173 16.3322 40.616C16.3695 40.2053 16.3975 39.846 16.4162 39.538ZM21.557 47C21.2677 47 21.0297 46.972 20.843 46.916C20.6657 46.8507 20.521 46.762 20.409 46.65C20.3063 46.538 20.2317 46.4027 20.185 46.244C20.1477 46.076 20.129 45.8847 20.129 45.67C20.129 45.53 20.1337 45.334 20.143 45.082C20.1617 44.8207 20.1897 44.466 20.227 44.018C20.2643 43.5607 20.3063 42.9867 20.353 42.296C20.409 41.596 20.4743 40.7327 20.549 39.706C20.5583 39.5007 20.5817 39.3793 20.619 39.342C20.647 39.314 20.7217 39.3 20.843 39.3H21.389C21.6783 39.3 21.9117 39.328 22.089 39.384C22.2757 39.44 22.4203 39.524 22.523 39.636C22.635 39.748 22.7097 39.8833 22.747 40.042C22.7937 40.2007 22.817 40.378 22.817 40.574C22.817 40.714 22.8077 40.924 22.789 41.204C22.7703 41.484 22.7423 41.8667 22.705 42.352C22.677 42.828 22.635 43.4253 22.579 44.144C22.523 44.8533 22.453 45.712 22.369 46.72C22.3597 46.832 22.3363 46.9067 22.299 46.944C22.2617 46.9813 22.1823 47 22.061 47H21.557ZM20.563 37.648C20.563 37.2747 20.6983 36.9807 20.969 36.766C21.2397 36.5513 21.6037 36.444 22.061 36.444C22.4623 36.444 22.7517 36.528 22.929 36.696C23.1157 36.8547 23.209 37.0693 23.209 37.34C23.209 37.6853 23.0783 37.9747 22.817 38.208C22.565 38.432 22.1917 38.544 21.697 38.544C20.941 38.544 20.563 38.2453 20.563 37.648ZM28.8265 45.768C28.8265 45.5627 28.8405 45.2967 28.8685 44.97C28.9058 44.634 28.9385 44.284 28.9665 43.92C29.0038 43.5467 29.0365 43.1873 29.0645 42.842C29.1018 42.4967 29.1205 42.2073 29.1205 41.974C29.1205 41.7313 29.0598 41.5167 28.9385 41.33C28.8265 41.134 28.6025 41.036 28.2665 41.036C27.9398 41.036 27.6692 41.1153 27.4545 41.274C27.2398 41.4327 27.0578 41.722 26.9085 42.142C26.7685 42.562 26.6518 43.1407 26.5585 43.878C26.4652 44.6153 26.3765 45.5627 26.2925 46.72C26.2832 46.832 26.2598 46.9067 26.2225 46.944C26.1852 46.9813 26.1058 47 25.9845 47H25.4805C25.1912 47 24.9532 46.972 24.7665 46.916C24.5892 46.8507 24.4445 46.762 24.3325 46.65C24.2298 46.538 24.1552 46.4027 24.1085 46.244C24.0712 46.076 24.0525 45.8847 24.0525 45.67C24.0525 45.53 24.0572 45.334 24.0665 45.082C24.0852 44.8207 24.1132 44.466 24.1505 44.018C24.1878 43.5607 24.2298 42.9867 24.2765 42.296C24.3325 41.596 24.3978 40.7327 24.4725 39.706C24.4818 39.5007 24.5052 39.3793 24.5425 39.342C24.5705 39.314 24.6452 39.3 24.7665 39.3H25.3125C25.5925 39.3 25.8212 39.3327 25.9985 39.398C26.1852 39.4633 26.3345 39.552 26.4465 39.664C26.5585 39.7667 26.6378 39.8927 26.6845 40.042C26.7312 40.182 26.7592 40.3267 26.7685 40.476C27.0578 39.9813 27.3892 39.6407 27.7625 39.454C28.1358 39.258 28.6025 39.16 29.1625 39.16C29.5545 39.16 29.8952 39.202 30.1845 39.286C30.4738 39.37 30.7118 39.5147 30.8985 39.72C31.0945 39.916 31.2392 40.1773 31.3325 40.504C31.4258 40.8213 31.4725 41.218 31.4725 41.694C31.4725 41.8433 31.4632 42.058 31.4445 42.338C31.4258 42.618 31.4025 42.926 31.3745 43.262C31.3465 43.5887 31.3138 43.934 31.2765 44.298C31.2485 44.6527 31.2205 44.984 31.1925 45.292C31.1645 45.6 31.1412 45.8707 31.1225 46.104C31.1038 46.3373 31.0945 46.4913 31.0945 46.566C31.0945 46.7713 31.0712 46.8973 31.0245 46.944C30.9778 46.9813 30.8752 47 30.7165 47H30.2685C29.9698 47 29.7272 46.972 29.5405 46.916C29.3538 46.86 29.2092 46.7807 29.1065 46.678C29.0038 46.5753 28.9292 46.4493 28.8825 46.3C28.8452 46.1413 28.8265 45.964 28.8265 45.768ZM35.9545 47.14C35.5438 47.14 35.1332 47.0887 34.7225 46.986C34.3212 46.8833 33.9572 46.706 33.6305 46.454C33.3132 46.202 33.0518 45.866 32.8465 45.446C32.6412 45.026 32.5385 44.4987 32.5385 43.864C32.5385 43.6307 32.5572 43.3507 32.5945 43.024C32.6318 42.6973 32.7018 42.3613 32.8045 42.016C32.9165 41.6707 33.0658 41.33 33.2525 40.994C33.4485 40.6487 33.7005 40.3407 34.0085 40.07C34.3165 39.7993 34.6898 39.58 35.1285 39.412C35.5672 39.244 36.0898 39.16 36.6965 39.16C37.1818 39.16 37.5925 39.216 37.9285 39.328C38.2645 39.44 38.5352 39.594 38.7405 39.79C38.9458 39.9767 39.0952 40.196 39.1885 40.448C39.2818 40.7 39.3285 40.9707 39.3285 41.26C39.3285 41.6893 39.2398 42.0533 39.0625 42.352C38.8945 42.6507 38.6705 42.9027 38.3905 43.108C38.1198 43.304 37.8165 43.458 37.4805 43.57C37.1445 43.682 36.8132 43.7707 36.4865 43.836C36.1598 43.892 35.8565 43.9293 35.5765 43.948C35.3058 43.9573 35.0958 43.962 34.9465 43.962C34.9465 44.1393 34.9698 44.3167 35.0165 44.494C35.0725 44.662 35.1518 44.8113 35.2545 44.942C35.3572 45.0727 35.4925 45.18 35.6605 45.264C35.8285 45.348 36.0338 45.39 36.2765 45.39C36.5192 45.39 36.7058 45.3527 36.8365 45.278C36.9765 45.194 37.0885 45.1053 37.1725 45.012C37.2565 44.9093 37.3265 44.8207 37.3825 44.746C37.4478 44.662 37.5318 44.62 37.6345 44.62C37.6812 44.62 37.7605 44.634 37.8725 44.662C37.9938 44.6807 38.1152 44.7273 38.2365 44.802C38.3578 44.8767 38.4652 44.9793 38.5585 45.11C38.6518 45.2407 38.6985 45.4087 38.6985 45.614C38.6985 45.8847 38.6145 46.118 38.4465 46.314C38.2785 46.51 38.0592 46.6687 37.7885 46.79C37.5272 46.9113 37.2332 47 36.9065 47.056C36.5798 47.112 36.2625 47.14 35.9545 47.14ZM36.2205 41.022C36.0152 41.022 35.8378 41.0827 35.6885 41.204C35.5485 41.316 35.4272 41.4607 35.3245 41.638C35.2312 41.8153 35.1565 42.0113 35.1005 42.226C35.0538 42.4407 35.0165 42.646 34.9885 42.842C35.5672 42.8327 36.0338 42.7347 36.3885 42.548C36.7525 42.3613 36.9345 42.0953 36.9345 41.75C36.9345 41.5633 36.8738 41.3953 36.7525 41.246C36.6405 41.0967 36.4632 41.022 36.2205 41.022ZM43.4337 39.16C44.227 39.16 44.8103 39.3187 45.1837 39.636C45.557 39.944 45.7437 40.3407 45.7437 40.826C45.7437 41.2367 45.613 41.5493 45.3517 41.764C45.0997 41.9787 44.731 42.086 44.2457 42.086C44.115 42.086 44.0263 42.072 43.9797 42.044C43.933 42.016 43.9097 41.9647 43.9097 41.89C43.9097 41.806 43.9003 41.7127 43.8817 41.61C43.8723 41.498 43.8397 41.3953 43.7837 41.302C43.737 41.1993 43.6577 41.1153 43.5457 41.05C43.443 40.9847 43.2937 40.952 43.0977 40.952C42.8363 40.952 42.6263 41.0173 42.4677 41.148C42.309 41.2693 42.2297 41.4233 42.2297 41.61C42.2297 41.806 42.309 41.9647 42.4677 42.086C42.6357 42.198 42.841 42.3053 43.0837 42.408C43.3357 42.5107 43.6063 42.618 43.8957 42.73C44.185 42.8327 44.451 42.9727 44.6937 43.15C44.9457 43.3273 45.151 43.5513 45.3097 43.822C45.4777 44.0833 45.5617 44.424 45.5617 44.844C45.5617 45.516 45.3237 46.0667 44.8477 46.496C44.3717 46.9253 43.6577 47.14 42.7057 47.14C42.4443 47.14 42.141 47.1167 41.7957 47.07C41.4597 47.0327 41.1377 46.972 40.8297 46.888C40.5217 46.7947 40.2603 46.6733 40.0457 46.524C39.8403 46.3747 39.7377 46.188 39.7377 45.964C39.7377 45.88 39.7517 45.7773 39.7797 45.656C39.817 45.5347 39.8683 45.418 39.9337 45.306C40.0083 45.194 40.0923 45.1007 40.1857 45.026C40.2883 44.942 40.4097 44.9 40.5497 44.9C40.6617 44.9 40.7643 44.928 40.8577 44.984C40.951 45.04 41.0583 45.1007 41.1797 45.166C41.3103 45.222 41.469 45.278 41.6557 45.334C41.8423 45.39 42.0897 45.418 42.3977 45.418C42.631 45.418 42.8363 45.39 43.0137 45.334C43.2003 45.278 43.2937 45.152 43.2937 44.956C43.2937 44.7787 43.219 44.6387 43.0697 44.536C42.9203 44.424 42.729 44.3213 42.4957 44.228C42.2717 44.1347 42.0243 44.0367 41.7537 43.934C41.4923 43.822 41.245 43.6773 41.0117 43.5C40.7877 43.3227 40.601 43.0987 40.4517 42.828C40.3023 42.548 40.2277 42.1887 40.2277 41.75C40.2277 41.274 40.321 40.8727 40.5077 40.546C40.7037 40.21 40.951 39.9393 41.2497 39.734C41.5577 39.5287 41.903 39.384 42.2857 39.3C42.6683 39.2067 43.051 39.16 43.4337 39.16Z" fill="black"/>
<defs>
<clipPath id="clip0_47_55">
<rect width="32.7182" height="32.7182" fill="white" transform="translate(10)"/>
</clipPath>
</defs>
</svg>
