<svg width="43" height="36" viewBox="0 0 43 36" fill="none" xmlns="http://www.w3.org/2000/svg">
<path d="M38.3125 32.7527C38.3125 32.2085 38.0543 31.6866 37.5947 31.3018C37.135 30.917 36.5116 30.7008 35.8616 30.7008H6.45089C5.80088 30.7008 5.17748 30.917 4.71785 31.3018C4.25822 31.6866 4 32.2085 4 32.7527V32.7527" stroke="black" stroke-width="2" stroke-linecap="round" stroke-linejoin="round"/>
<path d="M9.51451 15.8244H32.798" stroke="#B5A19C" stroke-width="2" stroke-linecap="round" stroke-linejoin="round"/>
<path d="M21.1562 25.571V6.07787" stroke="#B5A19C" stroke-width="2" stroke-linecap="round" stroke-linejoin="round"/>
<path d="M12.9243 22.7163L29.3882 8.93259" stroke="#B5A19C" stroke-width="2" stroke-linecap="round" stroke-linejoin="round"/>
<path d="M29.3882 22.7163L12.9243 8.93259" stroke="#B5A19C" stroke-width="2" stroke-linecap="round" stroke-linejoin="round"/>
<path d="M10.4268 19.6071L31.8856 12.0417" stroke="#B5A19C" stroke-width="2" stroke-linecap="round" stroke-linejoin="round"/>
<path d="M25.6745 24.8072L16.638 6.84169" stroke="#B5A19C" stroke-width="2" stroke-linecap="round" stroke-linejoin="round"/>
<path d="M16.7649 24.8508L25.5476 6.79809" stroke="#B5A19C" stroke-width="2" stroke-linecap="round" stroke-linejoin="round"/>
<path d="M31.9377 19.5009L10.3748 12.1479" stroke="#B5A19C" stroke-width="2" stroke-linecap="round" stroke-linejoin="round"/>
<path d="M21.1562 15.3115L16.2545 30.7008H26.058L21.1562 15.3115Z" stroke="black" stroke-width="2" stroke-linecap="round" stroke-linejoin="round"/>
<path d="M21.1562 16.8504C21.833 16.8504 22.3817 16.3911 22.3817 15.8244C22.3817 15.2578 21.833 14.7985 21.1562 14.7985C20.4795 14.7985 19.9308 15.2578 19.9308 15.8244C19.9308 16.3911 20.4795 16.8504 21.1562 16.8504Z" stroke="black" stroke-width="2" stroke-linecap="round" stroke-linejoin="round"/>
<path d="M22.3817 3H19.9308V5.05191H22.3817V3Z" stroke="black" stroke-width="2.02952" stroke-linecap="round" stroke-linejoin="round"/>
<path d="M22.3817 26.597H19.9308V28.6489H22.3817V26.597Z" stroke="black" stroke-width="2.02952" stroke-linecap="round" stroke-linejoin="round"/>
<path d="M5.83817 14.7985V16.8504H8.28906V14.7985H5.83817Z" stroke="black" stroke-width="2.02952" stroke-linecap="round" stroke-linejoin="round"/>
<path d="M34.0234 14.7985V16.8504H36.4743V14.7985H34.0234Z" stroke="black" stroke-width="2.02952" stroke-linecap="round" stroke-linejoin="round"/>
<path d="M11.1916 6.03075L9.45852 7.48167L11.1916 8.93259L12.9246 7.48167L11.1916 6.03075Z" stroke="black" stroke-width="2.02952" stroke-linecap="round" stroke-linejoin="round"/>
<path d="M31.1208 22.7164L29.3878 24.1673L31.1208 25.6182L32.8539 24.1673L31.1208 22.7164Z" stroke="black" stroke-width="2.02952" stroke-linecap="round" stroke-linejoin="round"/>
<path d="M9.45784 24.1673L11.1909 25.6182L12.9239 24.1673L11.1909 22.7164L9.45784 24.1673Z" stroke="black" stroke-width="2.02952" stroke-linecap="round" stroke-linejoin="round"/>
<path d="M29.3887 7.48167L31.1217 8.93259L32.8548 7.48167L31.1217 6.03075L29.3887 7.48167Z" stroke="black" stroke-width="2.02952" stroke-linecap="round" stroke-linejoin="round"/>
<path d="M38.3125 32.7527C38.3125 32.2085 38.0543 31.6866 37.5947 31.3018C37.135 30.917 36.5116 30.7008 35.8616 30.7008H6.45089C5.80088 30.7008 5.17748 30.917 4.71785 31.3018C4.25822 31.6866 4 32.2085 4 32.7527V32.7527" stroke="black" stroke-width="2" stroke-linecap="round" stroke-linejoin="round"/>
<path d="M12.1835 24.9231C14.3261 26.4083 16.9477 27.3268 19.7151 27.5619" stroke="black" stroke-width="2" stroke-linecap="round" stroke-linejoin="round"/>
<path d="M7.12488 16.9566C7.39037 19.2932 8.48582 21.5096 10.27 23.3201" stroke="black" stroke-width="2" stroke-linecap="round" stroke-linejoin="round"/>
<path d="M10.2731 8.3283C8.51739 10.1098 7.42791 12.285 7.14082 14.582" stroke="black" stroke-width="2" stroke-linecap="round" stroke-linejoin="round"/>
<path d="M19.8168 4.07726C17.0325 4.29631 14.39 5.20739 12.2289 6.69344" stroke="black" stroke-width="2" stroke-linecap="round" stroke-linejoin="round"/>
<path d="M30.0842 6.69344C27.969 5.23916 25.3919 4.33458 22.6703 4.0911" stroke="black" stroke-width="2" stroke-linecap="round" stroke-linejoin="round"/>
<path d="M35.1876 14.7113C34.9228 12.338 33.8019 10.0884 31.9739 8.26109" stroke="black" stroke-width="2" stroke-linecap="round" stroke-linejoin="round"/>
<path d="M31.9727 23.3878C33.8238 21.5376 34.9493 19.255 35.1962 16.8504" stroke="black" stroke-width="2" stroke-linecap="round" stroke-linejoin="round"/>
<path d="M22.5208 27.5685C25.289 27.3461 27.9158 26.4399 30.0677 24.9652" stroke="black" stroke-width="2" stroke-linecap="round" stroke-linejoin="round"/>
<path d="M9.51451 15.8244H32.798" stroke="black" stroke-width="2" stroke-linecap="round" stroke-linejoin="round"/>
<path d="M21.1562 25.571V6.07787" stroke="black" stroke-width="2" stroke-linecap="round" stroke-linejoin="round"/>
<path d="M12.9243 22.7163L29.3882 8.93259" stroke="black" stroke-width="2" stroke-linecap="round" stroke-linejoin="round"/>
<path d="M29.3882 22.7163L12.9243 8.93259" stroke="black" stroke-width="2" stroke-linecap="round" stroke-linejoin="round"/>
<path d="M10.4268 19.6071L31.8856 12.0417" stroke="black" stroke-width="2" stroke-linecap="round" stroke-linejoin="round"/>
<path d="M25.6745 24.8072L16.638 6.84169" stroke="black" stroke-width="2" stroke-linecap="round" stroke-linejoin="round"/>
<path d="M16.7649 24.8508L25.5476 6.79809" stroke="black" stroke-width="2" stroke-linecap="round" stroke-linejoin="round"/>
<path d="M31.9377 19.5009L10.3748 12.1479" stroke="black" stroke-width="2" stroke-linecap="round" stroke-linejoin="round"/>
<path d="M26.0133 30.5607L21.1562 15.3115L16.3047 30.5433" stroke="black" stroke-width="2" stroke-linecap="round" stroke-linejoin="round"/>
<path d="M21.1562 16.8504C21.833 16.8504 22.3817 16.3911 22.3817 15.8244C22.3817 15.2578 21.833 14.7985 21.1562 14.7985C20.4795 14.7985 19.9308 15.2578 19.9308 15.8244C19.9308 16.3911 20.4795 16.8504 21.1562 16.8504Z" stroke="black" stroke-width="2" stroke-linecap="round" stroke-linejoin="round"/>
</svg>
