<svg width="35" height="35" viewBox="0 0 35 35" fill="none" xmlns="http://www.w3.org/2000/svg">
<path d="M7.65625 2.1875C7.95828 2.1875 8.20312 1.94266 8.20312 1.64062C8.20312 1.33859 7.95828 1.09375 7.65625 1.09375C7.35422 1.09375 7.10938 1.33859 7.10938 1.64062C7.10938 1.94266 7.35422 2.1875 7.65625 2.1875Z" fill="black"/>
<path d="M31.1719 28.4375C31.4739 28.4375 31.7188 28.1927 31.7188 27.8906C31.7188 27.5886 31.4739 27.3438 31.1719 27.3438C30.8698 27.3438 30.625 27.5886 30.625 27.8906C30.625 28.1927 30.8698 28.4375 31.1719 28.4375Z" fill="black"/>
<path d="M4.44556 4.375L2.83337 5.98719" stroke="black" stroke-width="2" stroke-linecap="round" stroke-linejoin="round"/>
<path d="M2.83337 4.375L4.44556 5.98719" stroke="black" stroke-width="2" stroke-linecap="round" stroke-linejoin="round"/>
<path d="M32.8125 33.3594C32.8125 32.7792 32.582 32.2228 32.1718 31.8126C31.7616 31.4023 31.2052 31.1719 30.625 31.1719H4.375C3.79484 31.1719 3.23844 31.4023 2.8282 31.8126C2.41797 32.2228 2.1875 32.7792 2.1875 33.3594V33.3594" stroke="black" stroke-width="2" stroke-linecap="round" stroke-linejoin="round"/>
<path d="M7.10938 15.3125H27.8906" stroke="#B5A19C" stroke-width="2" stroke-linecap="round" stroke-linejoin="round"/>
<path d="M17.5 25.7031V4.92188" stroke="#B5A19C" stroke-width="2" stroke-linecap="round" stroke-linejoin="round"/>
<path d="M10.1527 22.6598L24.8473 7.96523" stroke="#B5A19C" stroke-width="2" stroke-linecap="round" stroke-linejoin="round"/>
<path d="M24.8473 22.6598L10.1527 7.96523" stroke="#B5A19C" stroke-width="2" stroke-linecap="round" stroke-linejoin="round"/>
<path d="M7.92368 19.3452L27.0763 11.2798" stroke="#B5A19C" stroke-width="2" stroke-linecap="round" stroke-linejoin="round"/>
<path d="M21.5327 24.8888L13.4673 5.73617" stroke="#B5A19C" stroke-width="2" stroke-linecap="round" stroke-linejoin="round"/>
<path d="M13.5805 24.9353L21.4194 5.68969" stroke="#B5A19C" stroke-width="2" stroke-linecap="round" stroke-linejoin="round"/>
<path d="M27.1228 19.232L7.8772 11.393" stroke="#B5A19C" stroke-width="2" stroke-linecap="round" stroke-linejoin="round"/>
<path d="M17.5 14.7656L13.125 31.1719H21.875L17.5 14.7656Z" stroke="black" stroke-width="2" stroke-linecap="round" stroke-linejoin="round"/>
<path d="M17.5 16.4062C18.1041 16.4062 18.5938 15.9166 18.5938 15.3125C18.5938 14.7084 18.1041 14.2188 17.5 14.2188C16.8959 14.2188 16.4062 14.7084 16.4062 15.3125C16.4062 15.9166 16.8959 16.4062 17.5 16.4062Z" stroke="black" stroke-width="2" stroke-linecap="round" stroke-linejoin="round"/>
<path d="M18.5938 1.64062H16.4062V3.82812H18.5938V1.64062Z" stroke="black" stroke-width="2.02952" stroke-linecap="round" stroke-linejoin="round"/>
<path d="M18.5938 26.7969H16.4062V28.9844H18.5938V26.7969Z" stroke="black" stroke-width="2.02952" stroke-linecap="round" stroke-linejoin="round"/>
<path d="M3.82812 14.2188V16.4062H6.01562V14.2188H3.82812Z" stroke="black" stroke-width="2.02952" stroke-linecap="round" stroke-linejoin="round"/>
<path d="M28.9844 14.2188V16.4062H31.1719V14.2188H28.9844Z" stroke="black" stroke-width="2.02952" stroke-linecap="round" stroke-linejoin="round"/>
<path d="M8.60621 4.87164L7.05942 6.41844L8.60621 7.96523L10.153 6.41844L8.60621 4.87164Z" stroke="black" stroke-width="2.02952" stroke-linecap="round" stroke-linejoin="round"/>
<path d="M26.3937 22.6598L24.8469 24.2066L26.3937 25.7534L27.9405 24.2066L26.3937 22.6598Z" stroke="black" stroke-width="2.02952" stroke-linecap="round" stroke-linejoin="round"/>
<path d="M7.0588 24.2067L8.60559 25.7534L10.1524 24.2067L8.60559 22.6599L7.0588 24.2067Z" stroke="black" stroke-width="2.02952" stroke-linecap="round" stroke-linejoin="round"/>
<path d="M24.8477 6.41845L26.3945 7.96524L27.9413 6.41845L26.3945 4.87165L24.8477 6.41845Z" stroke="black" stroke-width="2.02952" stroke-linecap="round" stroke-linejoin="round"/>
<path d="M7.65625 2.1875C7.95828 2.1875 8.20312 1.94266 8.20312 1.64062C8.20312 1.33859 7.95828 1.09375 7.65625 1.09375C7.35422 1.09375 7.10938 1.33859 7.10938 1.64062C7.10938 1.94266 7.35422 2.1875 7.65625 2.1875Z" fill="black"/>
<path d="M31.1719 28.4375C31.4739 28.4375 31.7188 28.1927 31.7188 27.8906C31.7188 27.5886 31.4739 27.3438 31.1719 27.3438C30.8698 27.3438 30.625 27.5886 30.625 27.8906C30.625 28.1927 30.8698 28.4375 31.1719 28.4375Z" fill="black"/>
<path d="M4.44556 4.375L2.83337 5.98719" stroke="black" stroke-width="2" stroke-linecap="round" stroke-linejoin="round"/>
<path d="M2.83337 4.375L4.44556 5.98719" stroke="black" stroke-width="2" stroke-linecap="round" stroke-linejoin="round"/>
<path d="M32.8125 33.3594C32.8125 32.7792 32.582 32.2228 32.1718 31.8126C31.7616 31.4023 31.2052 31.1719 30.625 31.1719H4.375C3.79484 31.1719 3.23844 31.4023 2.8282 31.8126C2.41797 32.2228 2.1875 32.7792 2.1875 33.3594V33.3594" stroke="black" stroke-width="2" stroke-linecap="round" stroke-linejoin="round"/>
<path d="M9.49158 25.0124C11.4039 26.5957 13.7437 27.5749 16.2138 27.8255" stroke="black" stroke-width="2" stroke-linecap="round" stroke-linejoin="round"/>
<path d="M4.97656 16.5195C5.21352 19.0104 6.19125 21.3733 7.78367 23.3034" stroke="black" stroke-width="2" stroke-linecap="round" stroke-linejoin="round"/>
<path d="M7.78641 7.32101C6.21941 9.22019 5.24701 11.5392 4.99078 13.988" stroke="black" stroke-width="2" stroke-linecap="round" stroke-linejoin="round"/>
<path d="M16.3045 2.78906C13.8194 3.02259 11.4609 3.99388 9.53204 5.57812" stroke="black" stroke-width="2" stroke-linecap="round" stroke-linejoin="round"/>
<path d="M25.4685 5.57813C23.5806 4.02775 21.2804 3.0634 18.8513 2.80383" stroke="black" stroke-width="2" stroke-linecap="round" stroke-linejoin="round"/>
<path d="M30.0235 14.1258C29.7871 11.5957 28.7867 9.19743 27.1551 7.24937" stroke="black" stroke-width="2" stroke-linecap="round" stroke-linejoin="round"/>
<path d="M27.154 23.3756C28.8062 21.4032 29.8108 18.9698 30.0311 16.4062" stroke="black" stroke-width="2" stroke-linecap="round" stroke-linejoin="round"/>
<path d="M18.7179 27.8327C21.1886 27.5955 23.5331 26.6295 25.4538 25.0573" stroke="black" stroke-width="2" stroke-linecap="round" stroke-linejoin="round"/>
<path d="M7.10938 15.3125H27.8906" stroke="black" stroke-width="2" stroke-linecap="round" stroke-linejoin="round"/>
<path d="M17.5 25.7031V4.92188" stroke="black" stroke-width="2" stroke-linecap="round" stroke-linejoin="round"/>
<path d="M10.1527 22.6598L24.8473 7.96523" stroke="black" stroke-width="2" stroke-linecap="round" stroke-linejoin="round"/>
<path d="M24.8473 22.6598L10.1527 7.96523" stroke="black" stroke-width="2" stroke-linecap="round" stroke-linejoin="round"/>
<path d="M7.92368 19.3452L27.0763 11.2798" stroke="black" stroke-width="2" stroke-linecap="round" stroke-linejoin="round"/>
<path d="M21.5327 24.8888L13.4673 5.73617" stroke="black" stroke-width="2" stroke-linecap="round" stroke-linejoin="round"/>
<path d="M13.5805 24.9353L21.4194 5.68969" stroke="black" stroke-width="2" stroke-linecap="round" stroke-linejoin="round"/>
<path d="M27.1228 19.232L7.8772 11.393" stroke="black" stroke-width="2" stroke-linecap="round" stroke-linejoin="round"/>
<path d="M21.8351 31.0226L17.5 14.7656L13.1698 31.004" stroke="black" stroke-width="2" stroke-linecap="round" stroke-linejoin="round"/>
<path d="M17.5 16.4062C18.1041 16.4062 18.5938 15.9166 18.5938 15.3125C18.5938 14.7084 18.1041 14.2188 17.5 14.2188C16.8959 14.2188 16.4062 14.7084 16.4062 15.3125C16.4062 15.9166 16.8959 16.4062 17.5 16.4062Z" stroke="black" stroke-width="2" stroke-linecap="round" stroke-linejoin="round"/>
</svg>
