<svg width="22" height="21" viewBox="0 0 22 21" fill="none" xmlns="http://www.w3.org/2000/svg">
<path d="M10.701 0.808976C10.4653 0.896801 10.3534 1.00599 10.1314 1.35254C9.89227 1.72996 9.80452 2.08838 9.82344 2.60346C9.83893 3.04022 9.93013 3.35354 10.1418 3.69772C10.2072 3.80216 10.2984 3.92797 10.3448 3.97544C10.4395 4.07039 10.6356 4.20569 10.6803 4.20569C10.6958 4.20569 10.713 4.21518 10.7182 4.22705C10.7354 4.26503 9.43973 10.4223 9.37778 10.6027C9.29519 10.8401 9.22636 10.9588 9.13517 11.0205C9.06462 11.0656 9.04913 11.0679 8.98719 11.0442C8.89255 11.0039 8.77382 10.8353 8.66886 10.5908C8.6224 10.4793 8.07866 9.48709 7.46093 8.38571L6.33904 6.37996L6.41819 6.28739C6.77781 5.8625 6.96021 5.36878 6.96021 4.82284C6.96021 4.41457 6.87934 4.10362 6.68662 3.77368C6.45949 3.3844 6.27709 3.204 6.01727 3.11143C5.78842 3.03072 5.56472 3.0687 5.32555 3.22774C5.22575 3.2942 5.16552 3.35829 5.05196 3.51732C4.81794 3.84726 4.69233 4.12498 4.63555 4.44305C4.6063 4.61158 4.6063 5.03409 4.63555 5.20262C4.66824 5.3854 4.77493 5.69397 4.86268 5.85776C5.06228 6.23279 5.29286 6.46067 5.55784 6.54849C5.62495 6.56985 5.68001 6.58884 5.68173 6.59122C5.68689 6.59596 5.34792 11.2531 5.33243 11.386C5.31178 11.5617 5.23951 11.8418 5.18789 11.9391C5.05884 12.1859 4.88161 12.1693 4.61146 11.8845C4.54607 11.8156 3.94899 11.2697 3.28653 10.6739C2.62406 10.0781 2.07172 9.57491 2.05967 9.5583C2.04074 9.53456 2.04591 9.50845 2.09753 9.40875C2.34186 8.94114 2.39865 8.22667 2.23346 7.68548C2.09064 7.21312 1.76199 6.79773 1.42818 6.66005C1.30257 6.61021 1.05479 6.60309 0.920571 6.64819C0.868951 6.6648 0.760547 6.72177 0.679674 6.77399C0.557505 6.85707 0.507605 6.90691 0.369949 7.09918C0.242618 7.27483 0.189276 7.37215 0.134214 7.51695C0.0172069 7.8279 0 7.93946 0 8.3596C0 8.68004 0.00516208 8.75125 0.0412967 8.90554C0.209925 9.65087 0.650422 10.1232 1.17868 10.1232C1.36623 10.1256 1.47291 10.0876 1.63982 9.96182C1.70005 9.91434 1.75167 9.87874 1.75511 9.88349C1.76371 9.9001 2.2283 11.1083 2.41413 11.5996C2.9768 13.0927 3.24179 14.1418 3.38116 15.4212C3.39149 15.5114 3.40353 15.6159 3.4087 15.6539L3.41902 15.7179H10.9866H18.5525L18.5646 15.5945C18.5852 15.369 18.6953 14.6451 18.7573 14.3246C18.8898 13.6268 19.1031 12.8743 19.4008 12.0411C19.5781 11.5451 20.1889 9.92859 20.2113 9.89298C20.2182 9.88111 20.2474 9.89536 20.2749 9.92384C20.4126 10.0568 20.6948 10.1565 20.8703 10.1303C21.1697 10.0829 21.3899 9.93808 21.6033 9.64137C21.6842 9.52981 21.7754 9.3779 21.8081 9.30431C22.1471 8.50676 22.03 7.58341 21.5121 6.98287C21.3796 6.82858 21.1972 6.69566 21.0527 6.64819C20.9305 6.60783 20.7086 6.60783 20.5881 6.64819C20.3696 6.72177 20.1098 6.95913 19.9428 7.23923C19.7295 7.59528 19.6469 7.94658 19.6641 8.43555C19.6761 8.82246 19.7536 9.15003 19.8947 9.423C19.9377 9.50845 19.9463 9.53931 19.9291 9.56067C19.9188 9.57491 19.3613 10.0781 18.6936 10.6787C18.026 11.2816 17.4255 11.8299 17.3601 11.8987C17.2069 12.0578 17.1243 12.11 17.0159 12.11C16.8542 12.11 16.7458 11.9462 16.6821 11.602C16.658 11.4667 16.5995 10.7214 16.4842 9.0171C16.3948 7.69972 16.3208 6.61258 16.3208 6.60071C16.3208 6.58884 16.3328 6.57935 16.3449 6.57935C16.4103 6.57935 16.6529 6.45117 16.7458 6.36809C16.9488 6.18769 17.1691 5.81978 17.2603 5.50645C17.379 5.10768 17.3842 4.56886 17.2723 4.18195C17.2052 3.94933 17.1226 3.7903 16.9402 3.53869C16.7561 3.28471 16.6167 3.17077 16.3982 3.09956C16.1659 3.02598 15.8837 3.09481 15.6549 3.28471C15.5344 3.3844 15.3073 3.69772 15.2109 3.89711C14.958 4.42644 14.9597 5.23348 15.2178 5.77705C15.3021 5.95745 15.4536 6.18295 15.5723 6.31113L15.6411 6.38234L15.5878 6.47491C15.0922 7.34129 13.3646 10.465 13.301 10.6122C13.2046 10.833 13.0635 11.0276 12.9826 11.049C12.8501 11.0869 12.7108 10.9065 12.611 10.5671C12.5903 10.4959 12.4802 9.99742 12.3666 9.46335C12.2531 8.9269 11.9571 7.54068 11.7093 6.37759C11.4633 5.21687 11.2654 4.25316 11.2688 4.23654C11.274 4.21993 11.2895 4.20569 11.3032 4.20569C11.3153 4.20569 11.391 4.16296 11.4684 4.10837C11.6405 3.98968 11.8762 3.68111 11.9743 3.44611C12.1739 2.97376 12.2135 2.33761 12.0758 1.85576C11.9485 1.40951 11.6233 0.96089 11.3325 0.832713C11.1673 0.759129 10.8662 0.747261 10.701 0.808976Z" fill="black"/>
<path d="M3.38461 18.5385V20.2308H10.9957H18.6067L18.6102 18.5385L18.6154 16.8462H11.0009H3.38461V18.5385Z" fill="black"/>
</svg>
