<svg width="41" height="43" viewBox="0 0 41 43" fill="none" xmlns="http://www.w3.org/2000/svg">
<path d="M19.2294 0.712059C18.8999 0.839173 18.7436 0.997206 18.4334 1.49879C18.0991 2.04504 17.9765 2.5638 18.0029 3.30931C18.0246 3.94144 18.152 4.39493 18.4478 4.89308C18.5392 5.04424 18.6667 5.22632 18.7316 5.29503C18.8638 5.43245 19.138 5.62828 19.2005 5.62828C19.2221 5.62828 19.2462 5.64202 19.2534 5.6592C19.2775 5.71416 17.4667 14.6259 17.3801 14.887C17.2647 15.2305 17.1685 15.4023 17.0411 15.4916C16.9425 15.5569 16.9208 15.5603 16.8342 15.526C16.702 15.4676 16.5361 15.2237 16.3894 14.8698C16.3244 14.7083 15.5645 13.2723 14.7012 11.6782L13.1334 8.7752L13.244 8.64122C13.7466 8.02626 14.0015 7.31168 14.0015 6.52151C14.0015 5.9306 13.8884 5.48055 13.6191 5.00301C13.3017 4.43959 13.0468 4.17849 12.6837 4.0445C12.3638 3.9277 12.0512 3.98267 11.717 4.21284C11.5775 4.30904 11.4933 4.4018 11.3346 4.63198C11.0076 5.10951 10.832 5.51147 10.7527 5.97183C10.7118 6.21575 10.7118 6.82727 10.7527 7.07119C10.7984 7.33572 10.9475 7.78234 11.0701 8.01939C11.349 8.5622 11.6713 8.89201 12.0416 9.01912C12.1354 9.05004 12.2123 9.07753 12.2147 9.08096C12.222 9.08784 11.7482 15.8283 11.7266 16.0207C11.6977 16.2749 11.5967 16.6803 11.5246 16.8212C11.3442 17.1785 11.0965 17.1544 10.719 16.7422C10.6276 16.6425 9.79318 15.8524 8.86735 14.99C7.94153 14.1277 7.16961 13.3994 7.15278 13.3754C7.12632 13.341 7.13354 13.3032 7.20568 13.1589C7.54715 12.4821 7.62651 11.448 7.39566 10.6647C7.19606 9.98107 6.73676 9.37985 6.27024 9.18059C6.09469 9.10845 5.74841 9.09814 5.56084 9.16342C5.4887 9.18746 5.3372 9.26992 5.22418 9.3455C5.05344 9.46574 4.9837 9.53789 4.79133 9.81616C4.61338 10.0704 4.53883 10.2112 4.46188 10.4208C4.29835 10.8709 4.27431 11.0323 4.27431 11.6404C4.27431 12.1042 4.28152 12.2073 4.33202 12.4306C4.56769 13.5093 5.1833 14.193 5.92155 14.193C6.18367 14.1964 6.33276 14.1415 6.56602 13.9594C6.65019 13.8907 6.72233 13.8391 6.72714 13.846C6.73916 13.8701 7.38844 15.6187 7.64815 16.3299C8.4345 18.4908 8.80483 20.0093 8.99961 21.8611C9.01404 21.9916 9.03088 22.1428 9.03809 22.1977L9.05252 22.2905H19.6286H30.2022L30.219 22.1119C30.2479 21.7855 30.4018 20.7377 30.4883 20.2739C30.6735 19.2638 30.9717 18.1748 31.3877 16.9689C31.6354 16.2509 32.4891 13.9113 32.5203 13.8598C32.53 13.8426 32.5708 13.8632 32.6093 13.9044C32.8017 14.0968 33.1961 14.2411 33.4414 14.2033C33.8598 14.1346 34.1676 13.925 34.4658 13.4956C34.5788 13.3341 34.7062 13.1143 34.7519 13.0078C35.2257 11.8534 35.0621 10.517 34.3383 9.64782C34.1532 9.42452 33.8983 9.23213 33.6963 9.16342C33.5255 9.10501 33.2153 9.10501 33.047 9.16342C32.7416 9.26992 32.3785 9.61347 32.1452 10.0189C31.847 10.5342 31.7316 11.0426 31.7556 11.7504C31.7725 12.3103 31.8807 12.7844 32.0779 13.1795C32.138 13.3032 32.15 13.3479 32.126 13.3788C32.1115 13.3994 31.3324 14.1277 30.3994 14.9969C29.4663 15.8695 28.6271 16.6631 28.5357 16.7628C28.3217 16.9929 28.2062 17.0685 28.0547 17.0685C27.8287 17.0685 27.6772 16.8315 27.5882 16.3333C27.5546 16.1375 27.4728 15.0588 27.3117 12.5921C27.1866 10.6853 27.0832 9.11188 27.0832 9.09471C27.0832 9.07753 27.1001 9.06379 27.1169 9.06379C27.2083 9.06379 27.5473 8.87827 27.6772 8.75803C27.961 8.49693 28.2688 7.96442 28.3962 7.51094C28.5621 6.93377 28.5694 6.15391 28.4131 5.59392C28.3193 5.25724 28.2038 5.02706 27.9489 4.6629C27.6916 4.2953 27.4968 4.13039 27.1914 4.02733C26.8668 3.92083 26.4724 4.02046 26.1526 4.2953C25.9843 4.43959 25.6668 4.89308 25.5322 5.18166C25.1787 5.94778 25.1811 7.11585 25.5418 7.90258C25.6596 8.16368 25.8712 8.49006 26.0372 8.67557L26.1334 8.77864L26.0588 8.91262C25.3663 10.1666 22.9519 14.6877 22.8629 14.9007C22.7283 15.2202 22.5311 15.5019 22.418 15.5329C22.2329 15.5878 22.0381 15.3267 21.8986 14.8354C21.8698 14.7324 21.7159 14.0109 21.5571 13.2379C21.3984 12.4615 20.9848 10.4552 20.6385 8.77177C20.2947 7.0918 20.0181 5.69699 20.0229 5.67294C20.0301 5.64889 20.0518 5.62828 20.071 5.62828C20.0879 5.62828 20.1937 5.56644 20.3019 5.48742C20.5424 5.31564 20.8718 4.86903 21.0089 4.52891C21.2878 3.84525 21.3431 2.92453 21.1507 2.22712C20.9728 1.58124 20.5183 0.931932 20.1119 0.746414C19.881 0.639913 19.4602 0.622736 19.2294 0.712059Z" fill="black"/>
<path d="M2.31588 32.3H5.89088V32.509H5.28588V37.261C5.28588 38.251 5.06222 38.9733 4.61488 39.428C4.16755 39.8753 3.49655 40.099 2.60188 40.099C2.00788 40.099 1.53488 39.9853 1.18288 39.758C0.838216 39.5307 0.665883 39.2117 0.665883 38.801C0.665883 38.4857 0.753883 38.24 0.929883 38.064C1.10588 37.8807 1.34422 37.789 1.64488 37.789C1.95288 37.789 2.18022 37.866 2.32688 38.02C2.48088 38.174 2.55788 38.361 2.55788 38.581C2.55788 38.7937 2.51755 39.01 2.43688 39.23H2.00788C1.94188 39.34 1.90888 39.4463 1.90888 39.549C1.90888 39.6443 1.95655 39.7287 2.05188 39.802C2.15455 39.868 2.28655 39.901 2.44788 39.901C2.74122 39.901 2.92822 39.7873 3.00888 39.56C3.09688 39.3253 3.14088 38.823 3.14088 38.053V32.509H2.31588V32.3ZM8.5332 37.415H8.8522V36.568C8.8522 35.8713 8.81187 35.4057 8.7312 35.171C8.65787 34.929 8.5112 34.808 8.2912 34.808C8.1592 34.808 8.0382 34.8447 7.9282 34.918C7.82554 34.984 7.7742 35.0793 7.7742 35.204C7.7742 35.3213 7.7962 35.4423 7.8402 35.567H8.1152C8.17387 35.721 8.2032 35.908 8.2032 36.128C8.2032 36.3407 8.11154 36.5277 7.9282 36.689C7.74487 36.843 7.51387 36.92 7.2352 36.92C6.60454 36.92 6.2892 36.6157 6.2892 36.007C6.2892 35.105 7.05554 34.654 8.5882 34.654C9.46087 34.654 10.0622 34.8043 10.3922 35.105C10.7295 35.3983 10.8982 35.941 10.8982 36.733V38.966C10.8982 39.3473 11.0045 39.538 11.2172 39.538C11.4665 39.538 11.6132 39.1603 11.6572 38.405L11.8222 38.416C11.7929 39.0613 11.6719 39.505 11.4592 39.747C11.2465 39.989 10.8982 40.11 10.4142 40.11C9.5342 40.11 9.0282 39.8387 8.8962 39.296C8.80087 39.5747 8.65787 39.78 8.4672 39.912C8.27654 40.044 7.99787 40.11 7.6312 40.11C6.54587 40.11 6.0032 39.6663 6.0032 38.779C6.0032 38.2583 6.20854 37.9027 6.6192 37.712C7.0372 37.514 7.6752 37.415 8.5332 37.415ZM8.0932 38.768C8.0932 39.1493 8.11154 39.395 8.1482 39.505C8.1922 39.615 8.2692 39.67 8.3792 39.67C8.49654 39.67 8.60287 39.5783 8.6982 39.395C8.80087 39.2043 8.8522 38.944 8.8522 38.614V37.591H8.7752C8.32054 37.591 8.0932 37.9247 8.0932 38.592V38.768ZM15.0103 34.852C14.6876 34.852 14.4566 35.028 14.3173 35.38C14.178 35.732 14.1083 36.315 14.1083 37.129V37.701C14.1083 38.427 14.189 38.9477 14.3503 39.263C14.5116 39.5783 14.8086 39.736 15.2413 39.736C15.674 39.736 16.0186 39.5893 16.2753 39.296C16.532 39.0027 16.697 38.669 16.7703 38.295L16.9683 38.317C16.829 38.9477 16.5723 39.4023 16.1983 39.681C15.817 39.967 15.2926 40.11 14.6253 40.11C13.7746 40.11 13.122 39.8827 12.6673 39.428C12.2126 38.966 11.9853 38.295 11.9853 37.415C11.9853 36.5277 12.242 35.8457 12.7553 35.369C13.276 34.8923 13.9983 34.654 14.9223 34.654C15.575 34.654 16.0736 34.7823 16.4183 35.039C16.763 35.2883 16.9353 35.6037 16.9353 35.985C16.9353 36.3663 16.851 36.645 16.6823 36.821C16.521 36.997 16.2936 37.085 16.0003 37.085C15.7143 37.085 15.4833 37.008 15.3073 36.854C15.1313 36.7 15.0433 36.4727 15.0433 36.172C15.0433 36.04 15.0616 35.908 15.0983 35.776H15.4613C15.5126 35.6293 15.5383 35.4973 15.5383 35.38C15.5383 35.028 15.3623 34.852 15.0103 34.852ZM20.7373 40V39.802H21.2433L20.0003 37.25L19.7913 37.305V39.802H20.2973V40H17.1403V39.802H17.7453V31.948H17.0963V31.75H19.7913V37.085L19.9673 37.019L22.4423 34.962H21.4083V34.764H23.5753V34.962H22.8053L21.4963 36.073L23.3993 39.802H23.7953V40H20.7373ZM27.9766 37.041C27.9766 36.2857 27.9399 35.7797 27.8666 35.523C27.7932 35.259 27.6502 35.127 27.4376 35.127C27.2249 35.127 27.0342 35.2663 26.8656 35.545C26.6969 35.8163 26.6126 36.183 26.6126 36.645V38.658C26.6126 38.9733 26.6749 39.241 26.7996 39.461C26.9242 39.681 27.1076 39.791 27.3496 39.791C27.5916 39.791 27.7566 39.6297 27.8446 39.307C27.9326 38.9843 27.9766 38.4197 27.9766 37.613V37.041ZM26.5906 34.764V35.633C26.8766 34.9803 27.3826 34.654 28.1086 34.654C28.7392 34.654 29.2269 34.8813 29.5716 35.336C29.9236 35.7907 30.0996 36.48 30.0996 37.404C30.0996 38.328 29.9089 39.01 29.5276 39.45C29.1536 39.89 28.5889 40.11 27.8336 40.11C27.4816 40.11 27.2176 40.066 27.0416 39.978C26.8656 39.89 26.7226 39.7543 26.6126 39.571V42.42H28.0316V42.618H23.9616V42.42H24.5666V34.962H23.9836V34.764H26.5906ZM33.9814 37.833V36.898C33.9814 36.1867 33.941 35.6697 33.8604 35.347C33.787 35.017 33.611 34.852 33.3324 34.852C33.171 34.852 33.039 34.8997 32.9364 34.995C32.841 35.083 32.7714 35.2333 32.7274 35.446C32.6614 35.776 32.6284 36.2783 32.6284 36.953V37.811C32.6284 38.6103 32.6504 39.0907 32.6944 39.252C32.7457 39.4133 32.797 39.5453 32.8484 39.648C32.929 39.824 33.0867 39.912 33.3214 39.912C33.6074 39.912 33.7944 39.747 33.8824 39.417C33.9484 39.1823 33.9814 38.6543 33.9814 37.833ZM33.2994 40.11C32.3827 40.11 31.6897 39.8753 31.2204 39.406C30.751 38.9367 30.5164 38.2657 30.5164 37.393C30.5164 36.513 30.7657 35.8383 31.2644 35.369C31.7704 34.8923 32.478 34.654 33.3874 34.654C34.2967 34.654 34.975 34.874 35.4224 35.314C35.8697 35.7467 36.0934 36.4103 36.0934 37.305C36.0934 39.175 35.162 40.11 33.2994 40.11ZM36.951 38.427V34.962H36.346V34.764H36.951V33.345L38.997 32.839V34.764H40.427V34.962H38.997V38.669C38.997 39.0137 39.03 39.2667 39.096 39.428C39.1693 39.5893 39.316 39.67 39.536 39.67C39.756 39.67 39.9467 39.56 40.108 39.34C40.2767 39.12 40.3867 38.8193 40.438 38.438L40.625 38.46C40.5663 38.966 40.405 39.3693 40.141 39.67C39.877 39.9633 39.4407 40.11 38.832 40.11C38.2233 40.11 37.7577 39.989 37.435 39.747C37.1123 39.505 36.951 39.065 36.951 38.427Z" fill="black"/>
<path d="M8.82925 27.9842V30.2617H19.6411H30.4529L30.4578 27.9842L30.4652 25.7067H19.6485H8.82925V27.9842Z" fill="black"/>
</svg>
