<svg width="43" height="50" viewBox="0 0 43 50" fill="none" xmlns="http://www.w3.org/2000/svg">
<path d="M38.3125 32.7527C38.3125 32.2085 38.0543 31.6866 37.5947 31.3018C37.135 30.917 36.5116 30.7008 35.8616 30.7008H6.45089C5.80088 30.7008 5.17748 30.917 4.71785 31.3018C4.25822 31.6866 4 32.2085 4 32.7527V32.7527" stroke="black" stroke-width="2" stroke-linecap="round" stroke-linejoin="round"/>
<path d="M9.51451 15.8244H32.798" stroke="#B5A19C" stroke-width="2" stroke-linecap="round" stroke-linejoin="round"/>
<path d="M21.1562 25.571V6.07787" stroke="#B5A19C" stroke-width="2" stroke-linecap="round" stroke-linejoin="round"/>
<path d="M12.9243 22.7163L29.3882 8.93259" stroke="#B5A19C" stroke-width="2" stroke-linecap="round" stroke-linejoin="round"/>
<path d="M29.3882 22.7163L12.9243 8.93259" stroke="#B5A19C" stroke-width="2" stroke-linecap="round" stroke-linejoin="round"/>
<path d="M10.4268 19.6071L31.8856 12.0417" stroke="#B5A19C" stroke-width="2" stroke-linecap="round" stroke-linejoin="round"/>
<path d="M25.6745 24.8072L16.638 6.84169" stroke="#B5A19C" stroke-width="2" stroke-linecap="round" stroke-linejoin="round"/>
<path d="M16.7649 24.8508L25.5476 6.79809" stroke="#B5A19C" stroke-width="2" stroke-linecap="round" stroke-linejoin="round"/>
<path d="M31.9377 19.5009L10.3748 12.1479" stroke="#B5A19C" stroke-width="2" stroke-linecap="round" stroke-linejoin="round"/>
<path d="M21.1562 15.3115L16.2545 30.7008H26.058L21.1562 15.3115Z" stroke="black" stroke-width="2" stroke-linecap="round" stroke-linejoin="round"/>
<path d="M21.1562 16.8504C21.833 16.8504 22.3817 16.3911 22.3817 15.8244C22.3817 15.2578 21.833 14.7985 21.1562 14.7985C20.4795 14.7985 19.9308 15.2578 19.9308 15.8244C19.9308 16.3911 20.4795 16.8504 21.1562 16.8504Z" stroke="black" stroke-width="2" stroke-linecap="round" stroke-linejoin="round"/>
<path d="M22.3817 3H19.9308V5.05191H22.3817V3Z" stroke="black" stroke-width="2.02952" stroke-linecap="round" stroke-linejoin="round"/>
<path d="M22.3817 26.597H19.9308V28.6489H22.3817V26.597Z" stroke="black" stroke-width="2.02952" stroke-linecap="round" stroke-linejoin="round"/>
<path d="M5.83817 14.7985V16.8504H8.28906V14.7985H5.83817Z" stroke="black" stroke-width="2.02952" stroke-linecap="round" stroke-linejoin="round"/>
<path d="M34.0234 14.7985V16.8504H36.4743V14.7985H34.0234Z" stroke="black" stroke-width="2.02952" stroke-linecap="round" stroke-linejoin="round"/>
<path d="M11.1916 6.03075L9.45852 7.48167L11.1916 8.93259L12.9246 7.48167L11.1916 6.03075Z" stroke="black" stroke-width="2.02952" stroke-linecap="round" stroke-linejoin="round"/>
<path d="M31.1208 22.7164L29.3878 24.1673L31.1208 25.6182L32.8539 24.1673L31.1208 22.7164Z" stroke="black" stroke-width="2.02952" stroke-linecap="round" stroke-linejoin="round"/>
<path d="M9.45784 24.1673L11.1909 25.6182L12.9239 24.1673L11.1909 22.7164L9.45784 24.1673Z" stroke="black" stroke-width="2.02952" stroke-linecap="round" stroke-linejoin="round"/>
<path d="M29.3887 7.48167L31.1217 8.93259L32.8548 7.48167L31.1217 6.03075L29.3887 7.48167Z" stroke="black" stroke-width="2.02952" stroke-linecap="round" stroke-linejoin="round"/>
<path d="M38.3125 32.7527C38.3125 32.2085 38.0543 31.6866 37.5947 31.3018C37.135 30.917 36.5116 30.7008 35.8616 30.7008H6.45089C5.80088 30.7008 5.17748 30.917 4.71785 31.3018C4.25822 31.6866 4 32.2085 4 32.7527V32.7527" stroke="black" stroke-width="2" stroke-linecap="round" stroke-linejoin="round"/>
<path d="M12.1835 24.9231C14.3261 26.4083 16.9477 27.3268 19.7151 27.5619" stroke="black" stroke-width="2" stroke-linecap="round" stroke-linejoin="round"/>
<path d="M7.12488 16.9566C7.39037 19.2932 8.48582 21.5096 10.27 23.3201" stroke="black" stroke-width="2" stroke-linecap="round" stroke-linejoin="round"/>
<path d="M10.2731 8.3283C8.51739 10.1098 7.42791 12.285 7.14082 14.582" stroke="black" stroke-width="2" stroke-linecap="round" stroke-linejoin="round"/>
<path d="M19.8168 4.07726C17.0325 4.29631 14.39 5.20739 12.2289 6.69344" stroke="black" stroke-width="2" stroke-linecap="round" stroke-linejoin="round"/>
<path d="M30.0842 6.69344C27.969 5.23916 25.3919 4.33458 22.6703 4.0911" stroke="black" stroke-width="2" stroke-linecap="round" stroke-linejoin="round"/>
<path d="M35.1876 14.7113C34.9228 12.338 33.8019 10.0884 31.9739 8.26109" stroke="black" stroke-width="2" stroke-linecap="round" stroke-linejoin="round"/>
<path d="M31.9727 23.3878C33.8238 21.5376 34.9493 19.255 35.1962 16.8504" stroke="black" stroke-width="2" stroke-linecap="round" stroke-linejoin="round"/>
<path d="M22.5208 27.5685C25.289 27.3461 27.9158 26.4399 30.0677 24.9652" stroke="black" stroke-width="2" stroke-linecap="round" stroke-linejoin="round"/>
<path d="M9.51451 15.8244H32.798" stroke="black" stroke-width="2" stroke-linecap="round" stroke-linejoin="round"/>
<path d="M21.1562 25.571V6.07787" stroke="black" stroke-width="2" stroke-linecap="round" stroke-linejoin="round"/>
<path d="M12.9243 22.7163L29.3882 8.93259" stroke="black" stroke-width="2" stroke-linecap="round" stroke-linejoin="round"/>
<path d="M29.3882 22.7163L12.9243 8.93259" stroke="black" stroke-width="2" stroke-linecap="round" stroke-linejoin="round"/>
<path d="M10.4268 19.6071L31.8856 12.0417" stroke="black" stroke-width="2" stroke-linecap="round" stroke-linejoin="round"/>
<path d="M25.6745 24.8072L16.638 6.84169" stroke="black" stroke-width="2" stroke-linecap="round" stroke-linejoin="round"/>
<path d="M16.7649 24.8508L25.5476 6.79809" stroke="black" stroke-width="2" stroke-linecap="round" stroke-linejoin="round"/>
<path d="M31.9377 19.5009L10.3748 12.1479" stroke="black" stroke-width="2" stroke-linecap="round" stroke-linejoin="round"/>
<path d="M26.0133 30.5607L21.1562 15.3115L16.3047 30.5433" stroke="black" stroke-width="2" stroke-linecap="round" stroke-linejoin="round"/>
<path d="M21.1562 16.8504C21.833 16.8504 22.3817 16.3911 22.3817 15.8244C22.3817 15.2578 21.833 14.7985 21.1562 14.7985C20.4795 14.7985 19.9308 15.2578 19.9308 15.8244C19.9308 16.3911 20.4795 16.8504 21.1562 16.8504Z" stroke="black" stroke-width="2" stroke-linecap="round" stroke-linejoin="round"/>
<path d="M7.65165 43.374L8.73065 39.63L7.95065 37.147H7.20965V36.9H11.2396V37.147H10.4726L12.4096 43.296L13.9696 37.147H12.6566V36.9H15.2566V37.147H14.3986L12.0066 46.13H10.8496L8.92565 40.254L7.23565 46.13H6.10465L2.82865 37.147H2.21765V36.9H6.44265V37.147H5.53265L7.65165 43.374ZM15.4601 36.25H18.5931V41.008C18.7317 40.6093 18.9441 40.2887 19.2301 40.046C19.5161 39.8033 19.9494 39.682 20.5301 39.682C21.8734 39.682 22.5451 40.4057 22.5451 41.853V45.766H23.2731V46H19.5941V45.766H20.1271V41.541C20.1271 41.021 20.0924 40.6873 20.0231 40.54C19.9537 40.384 19.8281 40.306 19.6461 40.306C19.3687 40.306 19.1217 40.488 18.9051 40.852C18.6971 41.216 18.5931 41.658 18.5931 42.178V45.766H19.1521V46H15.4601V45.766H16.1751V36.484H15.4601V36.25ZM26.8898 46.13C25.7718 46.13 24.9312 45.844 24.3678 45.272C23.8132 44.6913 23.5358 43.8897 23.5358 42.867C23.5358 41.8357 23.8478 41.047 24.4718 40.501C25.1045 39.955 25.9062 39.682 26.8768 39.682C28.8442 39.682 29.7888 40.67 29.7108 42.646H26.0448V43.153C26.0448 44.0023 26.1532 44.6437 26.3698 45.077C26.5865 45.5103 26.9635 45.727 27.5008 45.727C28.5062 45.727 29.1648 45.1897 29.4768 44.115L29.7108 44.154C29.5462 44.778 29.2472 45.2633 28.8138 45.61C28.3892 45.9567 27.7478 46.13 26.8898 46.13ZM26.0578 42.386H27.3968V41.749C27.3968 41.047 27.3535 40.5703 27.2668 40.319C27.1888 40.059 27.0242 39.929 26.7728 39.929C26.5302 39.929 26.3482 40.0677 26.2268 40.345C26.1142 40.6137 26.0578 41.0817 26.0578 41.749V42.386ZM33.5929 46.13C32.4749 46.13 31.6343 45.844 31.0709 45.272C30.5163 44.6913 30.2389 43.8897 30.2389 42.867C30.2389 41.8357 30.5509 41.047 31.1749 40.501C31.8076 39.955 32.6093 39.682 33.5799 39.682C35.5473 39.682 36.4919 40.67 36.4139 42.646H32.7479V43.153C32.7479 44.0023 32.8563 44.6437 33.0729 45.077C33.2896 45.5103 33.6666 45.727 34.2039 45.727C35.2093 45.727 35.8679 45.1897 36.1799 44.115L36.4139 44.154C36.2493 44.778 35.9503 45.2633 35.5169 45.61C35.0923 45.9567 34.4509 46.13 33.5929 46.13ZM32.7609 42.386H34.0999V41.749C34.0999 41.047 34.0566 40.5703 33.9699 40.319C33.8919 40.059 33.7273 39.929 33.4759 39.929C33.2333 39.929 33.0513 40.0677 32.9299 40.345C32.8173 40.6137 32.7609 41.0817 32.7609 41.749V42.386ZM36.8251 36.25H40.0101V45.766H40.7381V46H36.8771V45.766H37.5921V36.484H36.8251V36.25Z" fill="black"/>
</svg>
