<svg width="33" height="10" viewBox="0 0 33 10" fill="none" xmlns="http://www.w3.org/2000/svg">
<path d="M4.78216 6.778L5.69516 3.61L5.03516 1.509H4.40816V1.3H7.81816V1.509H7.16916L8.80816 6.712L10.1282 1.509H9.01716V1.3H11.2172V1.509H10.4912L8.46716 9.11H7.48816L5.86016 4.138L4.43016 9.11H3.47316L0.701164 1.509H0.184164V1.3H3.75916V1.509H2.98916L4.78216 6.778ZM11.3893 0.749999H14.0403V4.776C14.1576 4.43867 14.3373 4.16733 14.5793 3.962C14.8213 3.75667 15.188 3.654 15.6793 3.654C16.816 3.654 17.3843 4.26633 17.3843 5.491V8.802H18.0003V9H14.8873V8.802H15.3383V5.227C15.3383 4.787 15.309 4.50467 15.2503 4.38C15.1916 4.248 15.0853 4.182 14.9313 4.182C14.6966 4.182 14.4876 4.336 14.3043 4.644C14.1283 4.952 14.0403 5.326 14.0403 5.766V8.802H14.5133V9H11.3893V8.802H11.9943V0.947999H11.3893V0.749999ZM21.0606 9.11C20.1146 9.11 19.4033 8.868 18.9266 8.384C18.4573 7.89267 18.2226 7.21433 18.2226 6.349C18.2226 5.47633 18.4866 4.809 19.0146 4.347C19.55 3.885 20.2283 3.654 21.0496 3.654C22.7143 3.654 23.5136 4.49 23.4476 6.162H20.3456V6.591C20.3456 7.30967 20.4373 7.85233 20.6206 8.219C20.804 8.58567 21.123 8.769 21.5776 8.769C22.4283 8.769 22.9856 8.31433 23.2496 7.405L23.4476 7.438C23.3083 7.966 23.0553 8.37667 22.6886 8.67C22.3293 8.96333 21.7866 9.11 21.0606 9.11ZM20.3566 5.942H21.4896V5.403C21.4896 4.809 21.453 4.40567 21.3796 4.193C21.3136 3.973 21.1743 3.863 20.9616 3.863C20.7563 3.863 20.6023 3.98033 20.4996 4.215C20.4043 4.44233 20.3566 4.83833 20.3566 5.403V5.942ZM26.7325 9.11C25.7865 9.11 25.0752 8.868 24.5985 8.384C24.1292 7.89267 23.8945 7.21433 23.8945 6.349C23.8945 5.47633 24.1585 4.809 24.6865 4.347C25.2218 3.885 25.9002 3.654 26.7215 3.654C28.3862 3.654 29.1855 4.49 29.1195 6.162H26.0175V6.591C26.0175 7.30967 26.1092 7.85233 26.2925 8.219C26.4758 8.58567 26.7948 8.769 27.2495 8.769C28.1002 8.769 28.6575 8.31433 28.9215 7.405L29.1195 7.438C28.9802 7.966 28.7272 8.37667 28.3605 8.67C28.0012 8.96333 27.4585 9.11 26.7325 9.11ZM26.0285 5.942H27.1615V5.403C27.1615 4.809 27.1248 4.40567 27.0515 4.193C26.9855 3.973 26.8462 3.863 26.6335 3.863C26.4282 3.863 26.2742 3.98033 26.1715 4.215C26.0762 4.44233 26.0285 4.83833 26.0285 5.403V5.942ZM29.4674 0.749999H32.1624V8.802H32.7784V9H29.5114V8.802H30.1164V0.947999H29.4674V0.749999Z" fill="black"/>
</svg>
