<svg width="43" height="47" viewBox="0 0 43 47" fill="none" xmlns="http://www.w3.org/2000/svg">
<path d="M38.3125 32.7527C38.3125 32.2085 38.0543 31.6866 37.5947 31.3018C37.135 30.917 36.5116 30.7008 35.8616 30.7008H6.45089C5.80088 30.7008 5.17748 30.917 4.71785 31.3018C4.25822 31.6866 4 32.2085 4 32.7527V32.7527" stroke="black" stroke-width="2" stroke-linecap="round" stroke-linejoin="round"/>
<path d="M9.51451 15.8244H32.798" stroke="#B5A19C" stroke-width="2" stroke-linecap="round" stroke-linejoin="round"/>
<path d="M21.1562 25.571V6.07787" stroke="#B5A19C" stroke-width="2" stroke-linecap="round" stroke-linejoin="round"/>
<path d="M12.9243 22.7163L29.3882 8.93259" stroke="#B5A19C" stroke-width="2" stroke-linecap="round" stroke-linejoin="round"/>
<path d="M29.3882 22.7163L12.9243 8.93259" stroke="#B5A19C" stroke-width="2" stroke-linecap="round" stroke-linejoin="round"/>
<path d="M10.4268 19.6071L31.8856 12.0417" stroke="#B5A19C" stroke-width="2" stroke-linecap="round" stroke-linejoin="round"/>
<path d="M25.6745 24.8072L16.638 6.84169" stroke="#B5A19C" stroke-width="2" stroke-linecap="round" stroke-linejoin="round"/>
<path d="M16.7649 24.8508L25.5476 6.79809" stroke="#B5A19C" stroke-width="2" stroke-linecap="round" stroke-linejoin="round"/>
<path d="M31.9377 19.5009L10.3748 12.1479" stroke="#B5A19C" stroke-width="2" stroke-linecap="round" stroke-linejoin="round"/>
<path d="M21.1562 15.3115L16.2545 30.7008H26.058L21.1562 15.3115Z" stroke="black" stroke-width="2" stroke-linecap="round" stroke-linejoin="round"/>
<path d="M21.1562 16.8504C21.833 16.8504 22.3817 16.3911 22.3817 15.8244C22.3817 15.2578 21.833 14.7985 21.1562 14.7985C20.4795 14.7985 19.9308 15.2578 19.9308 15.8244C19.9308 16.3911 20.4795 16.8504 21.1562 16.8504Z" stroke="black" stroke-width="2" stroke-linecap="round" stroke-linejoin="round"/>
<path d="M22.3817 3H19.9308V5.05191H22.3817V3Z" stroke="black" stroke-width="2.02952" stroke-linecap="round" stroke-linejoin="round"/>
<path d="M22.3817 26.597H19.9308V28.6489H22.3817V26.597Z" stroke="black" stroke-width="2.02952" stroke-linecap="round" stroke-linejoin="round"/>
<path d="M5.83817 14.7985V16.8504H8.28906V14.7985H5.83817Z" stroke="black" stroke-width="2.02952" stroke-linecap="round" stroke-linejoin="round"/>
<path d="M34.0234 14.7985V16.8504H36.4743V14.7985H34.0234Z" stroke="black" stroke-width="2.02952" stroke-linecap="round" stroke-linejoin="round"/>
<path d="M11.1916 6.03075L9.45852 7.48167L11.1916 8.93259L12.9246 7.48167L11.1916 6.03075Z" stroke="black" stroke-width="2.02952" stroke-linecap="round" stroke-linejoin="round"/>
<path d="M31.1208 22.7164L29.3878 24.1673L31.1208 25.6182L32.8539 24.1673L31.1208 22.7164Z" stroke="black" stroke-width="2.02952" stroke-linecap="round" stroke-linejoin="round"/>
<path d="M9.45784 24.1673L11.1909 25.6182L12.9239 24.1673L11.1909 22.7164L9.45784 24.1673Z" stroke="black" stroke-width="2.02952" stroke-linecap="round" stroke-linejoin="round"/>
<path d="M29.3887 7.48167L31.1217 8.93259L32.8548 7.48167L31.1217 6.03075L29.3887 7.48167Z" stroke="black" stroke-width="2.02952" stroke-linecap="round" stroke-linejoin="round"/>
<path d="M38.3125 32.7527C38.3125 32.2085 38.0543 31.6866 37.5947 31.3018C37.135 30.917 36.5116 30.7008 35.8616 30.7008H6.45089C5.80088 30.7008 5.17748 30.917 4.71785 31.3018C4.25822 31.6866 4 32.2085 4 32.7527V32.7527" stroke="black" stroke-width="2" stroke-linecap="round" stroke-linejoin="round"/>
<path d="M12.1835 24.9231C14.3261 26.4083 16.9477 27.3268 19.7151 27.5619" stroke="black" stroke-width="2" stroke-linecap="round" stroke-linejoin="round"/>
<path d="M7.12488 16.9566C7.39037 19.2932 8.48582 21.5096 10.27 23.3201" stroke="black" stroke-width="2" stroke-linecap="round" stroke-linejoin="round"/>
<path d="M10.2731 8.3283C8.51739 10.1098 7.42791 12.285 7.14082 14.582" stroke="black" stroke-width="2" stroke-linecap="round" stroke-linejoin="round"/>
<path d="M19.8168 4.07726C17.0325 4.29631 14.39 5.20739 12.2289 6.69344" stroke="black" stroke-width="2" stroke-linecap="round" stroke-linejoin="round"/>
<path d="M30.0842 6.69344C27.969 5.23916 25.3919 4.33458 22.6703 4.0911" stroke="black" stroke-width="2" stroke-linecap="round" stroke-linejoin="round"/>
<path d="M35.1876 14.7113C34.9228 12.338 33.8019 10.0884 31.9739 8.26109" stroke="black" stroke-width="2" stroke-linecap="round" stroke-linejoin="round"/>
<path d="M31.9727 23.3878C33.8238 21.5376 34.9493 19.255 35.1962 16.8504" stroke="black" stroke-width="2" stroke-linecap="round" stroke-linejoin="round"/>
<path d="M22.5208 27.5685C25.289 27.3461 27.9158 26.4399 30.0677 24.9652" stroke="black" stroke-width="2" stroke-linecap="round" stroke-linejoin="round"/>
<path d="M9.51451 15.8244H32.798" stroke="black" stroke-width="2" stroke-linecap="round" stroke-linejoin="round"/>
<path d="M21.1562 25.571V6.07787" stroke="black" stroke-width="2" stroke-linecap="round" stroke-linejoin="round"/>
<path d="M12.9243 22.7163L29.3882 8.93259" stroke="black" stroke-width="2" stroke-linecap="round" stroke-linejoin="round"/>
<path d="M29.3882 22.7163L12.9243 8.93259" stroke="black" stroke-width="2" stroke-linecap="round" stroke-linejoin="round"/>
<path d="M10.4268 19.6071L31.8856 12.0417" stroke="black" stroke-width="2" stroke-linecap="round" stroke-linejoin="round"/>
<path d="M25.6745 24.8072L16.638 6.84169" stroke="black" stroke-width="2" stroke-linecap="round" stroke-linejoin="round"/>
<path d="M16.7649 24.8508L25.5476 6.79809" stroke="black" stroke-width="2" stroke-linecap="round" stroke-linejoin="round"/>
<path d="M31.9377 19.5009L10.3748 12.1479" stroke="black" stroke-width="2" stroke-linecap="round" stroke-linejoin="round"/>
<path d="M26.0133 30.5607L21.1562 15.3115L16.3047 30.5433" stroke="black" stroke-width="2" stroke-linecap="round" stroke-linejoin="round"/>
<path d="M21.1562 16.8504C21.833 16.8504 22.3817 16.3911 22.3817 15.8244C22.3817 15.2578 21.833 14.7985 21.1562 14.7985C20.4795 14.7985 19.9308 15.2578 19.9308 15.8244C19.9308 16.3911 20.4795 16.8504 21.1562 16.8504Z" stroke="black" stroke-width="2" stroke-linecap="round" stroke-linejoin="round"/>
<path d="M9.78216 41.778L10.6952 38.61L10.0352 36.509H9.40816V36.3H12.8182V36.509H12.1692L13.8082 41.712L15.1282 36.509H14.0172V36.3H16.2172V36.509H15.4912L13.4672 44.11H12.4882L10.8602 39.138L9.43016 44.11H8.47316L5.70116 36.509H5.18416V36.3H8.75916V36.509H7.98916L9.78216 41.778ZM16.3893 35.75H19.0403V39.776C19.1576 39.4387 19.3373 39.1673 19.5793 38.962C19.8213 38.7567 20.188 38.654 20.6793 38.654C21.816 38.654 22.3843 39.2663 22.3843 40.491V43.802H23.0003V44H19.8873V43.802H20.3383V40.227C20.3383 39.787 20.309 39.5047 20.2503 39.38C20.1916 39.248 20.0853 39.182 19.9313 39.182C19.6966 39.182 19.4876 39.336 19.3043 39.644C19.1283 39.952 19.0403 40.326 19.0403 40.766V43.802H19.5133V44H16.3893V43.802H16.9943V35.948H16.3893V35.75ZM26.0606 44.11C25.1146 44.11 24.4033 43.868 23.9266 43.384C23.4573 42.8927 23.2226 42.2143 23.2226 41.349C23.2226 40.4763 23.4866 39.809 24.0146 39.347C24.55 38.885 25.2283 38.654 26.0496 38.654C27.7143 38.654 28.5136 39.49 28.4476 41.162H25.3456V41.591C25.3456 42.3097 25.4373 42.8523 25.6206 43.219C25.804 43.5857 26.123 43.769 26.5776 43.769C27.4283 43.769 27.9856 43.3143 28.2496 42.405L28.4476 42.438C28.3083 42.966 28.0553 43.3767 27.6886 43.67C27.3293 43.9633 26.7866 44.11 26.0606 44.11ZM25.3566 40.942H26.4896V40.403C26.4896 39.809 26.453 39.4057 26.3796 39.193C26.3136 38.973 26.1743 38.863 25.9616 38.863C25.7563 38.863 25.6023 38.9803 25.4996 39.215C25.4043 39.4423 25.3566 39.8383 25.3566 40.403V40.942ZM31.7325 44.11C30.7865 44.11 30.0752 43.868 29.5985 43.384C29.1292 42.8927 28.8945 42.2143 28.8945 41.349C28.8945 40.4763 29.1585 39.809 29.6865 39.347C30.2218 38.885 30.9002 38.654 31.7215 38.654C33.3862 38.654 34.1855 39.49 34.1195 41.162H31.0175V41.591C31.0175 42.3097 31.1092 42.8523 31.2925 43.219C31.4758 43.5857 31.7948 43.769 32.2495 43.769C33.1002 43.769 33.6575 43.3143 33.9215 42.405L34.1195 42.438C33.9802 42.966 33.7272 43.3767 33.3605 43.67C33.0012 43.9633 32.4585 44.11 31.7325 44.11ZM31.0285 40.942H32.1615V40.403C32.1615 39.809 32.1248 39.4057 32.0515 39.193C31.9855 38.973 31.8462 38.863 31.6335 38.863C31.4282 38.863 31.2742 38.9803 31.1715 39.215C31.0762 39.4423 31.0285 39.8383 31.0285 40.403V40.942ZM34.4674 35.75H37.1624V43.802H37.7784V44H34.5114V43.802H35.1164V35.948H34.4674V35.75Z" fill="black"/>
</svg>
